<mxfile host="app.diagrams.net" agent="Mozilla/5.0 (Windows NT 10.0; Win64; x64) AppleWebKit/537.36 (KHTML, like Gecko) Chrome/137.0.0.0 Safari/537.36 Edg/137.0.0.0" version="27.1.4">
  <diagram name="페이지-1" id="XED0V5c5DHZcUICSy-Oq">
    <mxGraphModel dx="810" dy="483" grid="1" gridSize="10" guides="1" tooltips="1" connect="1" arrows="1" fold="1" page="1" pageScale="1" pageWidth="827" pageHeight="1169" math="0" shadow="0">
      <root>
        <mxCell id="0" />
        <mxCell id="1" parent="0" />
        <mxCell id="_l-ZRb8BGKj7TKWA02cw-1" value="&lt;span style=&quot;font-size: 14px;&quot;&gt;&lt;b&gt;JAMO Tokenizer 기능적 요구사항&lt;/b&gt;&lt;/span&gt;&lt;div&gt;&lt;p&gt;&lt;/p&gt;&lt;ol&gt;&lt;li&gt;&lt;font size=&quot;1&quot;&gt;자모 형태로 분해(tokenize) 와 재결합(combine)을 진행.&lt;/font&gt;&lt;/li&gt;&lt;li&gt;&lt;font size=&quot;1&quot;&gt;모든 tokenize는 각 char를 [ &amp;lt;jamo&amp;gt;,&amp;lt;jamo&amp;nbsp;| padding&amp;nbsp;&amp;gt;,&amp;lt;jamo | padding &amp;gt;&amp;nbsp;] 형태로 출력&lt;/font&gt;&lt;/li&gt;&lt;li&gt;&lt;font size=&quot;1&quot;&gt;tokenize에는 padding이 존재할 시 명시적으로 작성해야함.&lt;/font&gt;&lt;/li&gt;&lt;/ol&gt;&lt;p&gt;&lt;/p&gt;&lt;div&gt;&lt;span style=&quot;font-size: 14px;&quot;&gt;&lt;b&gt;&lt;br&gt;&lt;/b&gt;&lt;/span&gt;&lt;/div&gt;&lt;/div&gt;" style="text;html=1;align=left;verticalAlign=middle;whiteSpace=wrap;rounded=0;" vertex="1" parent="1">
          <mxGeometry x="160" y="80" width="600" height="160" as="geometry" />
        </mxCell>
      </root>
    </mxGraphModel>
  </diagram>
</mxfile>
